<svg xmlns="http://www.w3.org/2000/svg" xmlns:xlink="http://www.w3.org/1999/xlink"
  width="1473.3593139648438" height="339.7563171386719"
  viewBox="0 0 1473.3593139648438 339.7563171386719" fill="none">
  <g id="path1" filter="url(#filter_0)">
    <!-- <path stroke="url(#linearGradient-1)" id="path" style="fill:#5ea5fa; opacity:0.72;"
      d="M4.29564,296.789M4.29564,296.789c5.86597,-4.30067 16.14903,-11.44133
    30.84916,-21.422c14.6576,-9.94067 30.62953,-12.28 47.9158,-7.018c5.90467,1.79667 12.5118,5.44667
    19.8214,10.95c7.10667,5.35067 13.36233,11.29333 18.767,17.828c6.96933,8.42133 16.02,13.54733
    27.152,15.378c14.72467,2.42067 28.99733,-2.76933 42.818,-15.57c6.40733,-5.936 10.74033,-12.31633
    12.999,-19.141c1.362,-4.11667 2.26367,-10.24467 2.705,-18.384c0.21333,-3.93 0.43633,-6.89
    0.669,-8.88c1.712,-14.676 6.36533,-25.741 13.96,-33.195c6.842,-6.71533 15.51733,-10.073
    26.026,-10.073c15.8,0 28.53667,5.67167 38.21,17.015c8.914,10.45267 14.17467,24.38633
    15.782,41.801c1.41067,15.29867 9.95767,29.11867 25.641,41.46c5.67467,4.46533 11.82733,8.357
    18.458,11.675c5.31333,2.65933 9.59733,4.359 12.852,5.099c11.55533,2.624 24.23633,4.21567
    38.043,4.775c22.38733,0.908 39.95367,-1.82667 52.699,-8.204c7.54067,-3.77733 13.01667,-9.29567
    16.428,-16.555c2.27133,-4.83333 4.838,-14.14767 7.7,-27.943c0.944,-4.55133 1.68867,-8.06867
    2.234,-10.552c3.68933,-16.80867 19.808,-27.80967 48.356,-33.003c15.204,-2.766 35.95167,-3.83267
    62.243,-3.2c3.66533,0.088 6.11667,0.132 7.354,0.132c0.90467,0 2.27,0.002
    4.096,0.006c20.818,0.048 35.77433,-1.212 44.869,-3.78c15.12133,-4.27 24.49,-13.021
    28.106,-26.253c2.94467,-10.77333 4.16267,-23.48967 3.654,-38.149c-0.268,-7.71267
    -0.08933,-13.32733 0.536,-16.844c2.158,-12.14667 6.09467,-22.48967
    11.81,-31.029c4.70267,-7.02667 12.409,-15.18083 23.119,-24.4625c12.66267,-10.97273
    30.46667,-14.35397 53.412,-10.1437c9.048,1.6602 19.67333,4.62023 31.876,8.8801c7.296,2.54693
    18.43867,6.80863 33.428,12.7851c29.40667,11.72533 50.86533,18.929 64.376,21.611c22.206,4.408
    39.732,2.15333 52.578,-6.764c17.10667,-11.8758 33.63533,-16.31813 49.586,-13.327c6.35733,1.19133
    13.13933,3.639 20.346,7.343c4.28,2.19733 10.53667,5.91867 18.77,11.164c10.00667,6.37133
    17.62,10.74267 22.84,13.114c8.58,3.89933 16.78,5.849 24.6,5.849c16.56667,0 29.92,-3.16967
    40.06,-9.509c14.25333,-8.908 17.45,-22.9862 9.59,-42.2346c-4.63333,-11.32787 -6.17667,-20.9042
    -4.63,-28.729c1.42,-7.20213 5.20333,-12.29057 11.35,-15.2653c5.54667,-2.6844 11.98667,-3.1954
    19.32,-1.533c7.27333,1.6474 13.82,5.0741 19.64,10.2801c9.47333,8.47347 17.22,14.34217
    23.24,17.6061c6.21333,3.3684 15.52667,6.68523 27.94,9.9505c3.74667,0.98693 8.30667,0.53597
    13.68,-1.3529c3.47333,-1.22253 9.25667,-3.94347 17.35,-8.1628c9.64667,-5.03013 17.34,-8.68123
    23.08,-10.9533c9.85333,-3.90167 19.56667,-6.42917 29.14,-7.5825c9.36667,-1.12633 19.73,-0.2347
    31.09,2.6749c6.02,1.54047 10.57,2.3107 13.65,2.3107c6.61333,0 16.42333,-1.7073
    29.43,-5.1219c11.97333,-3.14447 21.22,-6.20987 27.74,-9.1962c0.88,-0.40593 2.41,-1.08053
    4.59,-2.0238c11.45333,-4.95827 20.22667,-9.54383 26.32,-13.7567c10.70667,-7.40593
    17.54333,-15.74291 20.51,-25.01092l3.81,1.2191c-3.24,10.13235 -10.59,19.15965
    -22.05,27.08192c-6.30667,4.36233 -15.30667,9.0748 -27,14.1374c-2.15333,0.93227 -3.66,1.59537
    -4.52,1.9893c-6.72667,3.08267 -16.19,6.2256 -28.39,9.4288c-13.33333,3.502 -23.48,5.253
    -30.44,5.253c-3.41333,0 -8.29333,-0.8119 -14.64,-2.4357c-10.88,-2.78573 -20.75333,-3.64527
    -29.62,-2.5786c-9.23333,1.11207 -18.61667,3.55553 -28.15,7.3304c-5.61333,2.22133 -13.18333,5.815
    -22.71,10.781c-8.26,4.3072 -14.21667,7.10357 -17.87,8.3891c-6.14,2.1606 -11.48,2.64327
    -16.02,1.448c-12.72,-3.34687 -22.33,-6.7809 -28.83,-10.3021c-6.29333,-3.41287 -14.29333,-9.46
    -24,-18.1414c-5.3,-4.74553 -11.25,-7.86567 -17.85,-9.3604c-6.42667,-1.45607 -11.99333,-1.0452
    -16.7,1.2326c-4.95333,2.3952 -8.01,6.54113 -9.17,12.4378c-1.38667,7.0406 0.08333,15.85487
    4.41,26.4428c8.71333,21.32773 4.99,37.04093 -11.17,47.1396c-10.78667,6.74467 -24.84667,10.117
    -42.18,10.117c-8.39333,0 -17.14333,-2.069 -26.25,-6.207c-5.39333,-2.44933 -13.17333,-6.91
    -23.34,-13.382c-8.13333,-5.17867 -14.28333,-8.83867 -18.45,-10.98c-6.86,-3.52667 -13.27767,-5.85
    -19.253,-6.97c-14.85467,-2.78533 -30.37733,1.442 -46.568,12.682c-13.77533,9.56267
    -32.32133,12.02967 -55.638,7.401c-13.75067,-2.72933 -35.44333,-10.002
    -65.078,-21.818c-14.93467,-5.95513 -26.023,-10.19667 -33.265,-12.7246c-12.008,-4.19187
    -22.43433,-7.0993 -31.279,-8.7223c-21.686,-3.97913 -38.37633,-0.9017
    -50.071,9.2323c-10.44,9.04707 -17.91167,16.93527 -22.415,23.6646c-5.404,8.074 -9.136,17.90867
    -11.196,29.504c-0.57533,3.23933 -0.73433,8.57433 -0.477,16.005c0.52267,15.064 -0.74167,28.178
    -3.793,39.342c-4.01267,14.68667 -14.305,24.36967 -30.877,29.049c-9.45267,2.66933
    -24.77433,3.97933 -45.965,3.93c-1.826,-0.004 -3.18833,-0.006 -4.087,-0.006c-1.26933,0
    -3.75267,-0.04433 -7.45,-0.133c-26.01867,-0.626 -46.49567,0.41933 -61.431,3.136c-26.80133,4.876
    -41.85633,14.85133 -45.165,29.926c-0.54267,2.46933 -1.28433,5.97133
    -2.225,10.506c-2.92533,14.10333 -5.59067,23.714 -7.996,28.832c-3.804,8.09533 -9.89,14.23933
    -18.258,18.432c-13.36067,6.684 -31.57767,9.55833 -54.651,8.623c-14.05067,-0.57 -26.973,-2.194
    -38.767,-4.872c-3.56933,-0.81133 -8.15467,-2.61867 -13.756,-5.422c-6.87267,-3.43933
    -13.253,-7.47567 -19.141,-12.109c-16.58467,-13.05 -25.635,-27.795
    -27.151,-44.235c-1.53,-16.57267 -6.47767,-29.764 -14.843,-39.574c-8.87467,-10.40667
    -20.59667,-15.61 -35.166,-15.61c-9.41867,0 -17.16,2.97567 -23.224,8.927c-6.92267,6.79533
    -11.18567,17.06367 -12.789,30.805c-0.22333,1.908 -0.43933,4.78533 -0.648,8.632c-0.46,8.49467
    -1.42733,14.96967 -2.902,19.425c-2.47467,7.476 -7.16733,14.41533
    -14.078,20.818c-14.77733,13.68733 -30.17233,19.215 -46.185,16.583c-12.11733,-1.99267
    -21.979,-7.58433 -29.585,-16.775c-5.20467,-6.29333 -11.23467,-12.02067
    -18.09,-17.182c-6.9336,-5.22 -13.12733,-8.66 -18.5812,-10.32c-16.0674,-4.89067
    -30.90213,-2.72333 -44.5042,6.502c-14.66007,9.95267 -24.90367,17.06533
    -30.73082,21.338z"></path> -->
    <path id="path2" stroke="url(#linearGradient-1)" style="fill:url(#linearGradient-1);"
      d="M4.88693,297.595M4.88693,297.595c5.85625,-4.29333 16.12944,-11.42667
    30.81957,-21.4c14.394,-9.762 30.08163,-12.05867 47.0629,-6.89c5.79227,1.76333 12.29613,5.361
    19.5116,10.793c7.044,5.30333 13.24333,11.19233 18.598,17.667c7.128,8.61333 16.38133,13.85533
    27.76,15.726c15.04667,2.474 29.6,-2.80033 43.66,-15.823c6.53267,-6.05267 10.95533,-12.57267
    13.268,-19.56c1.39067,-4.20133 2.309,-10.416 2.755,-18.644c0.212,-3.90867 0.433,-6.848
    0.663,-8.818c1.68467,-14.44267 6.24067,-25.30867 13.668,-32.598c6.64733,-6.524 15.089,-9.786
    25.325,-9.786c15.492,0 27.975,5.55467 37.449,16.664c8.77667,10.292 13.959,24.04
    15.547,41.244c1.43733,15.58467 10.11033,29.636 26.019,42.154c5.72867,4.50733 11.938,8.435
    18.628,11.783c5.386,2.69533 9.74567,4.422 13.079,5.18c11.612,2.63733 24.35333,4.23733
    38.224,4.8c22.55733,0.91467 40.28633,-1.855 53.187,-8.309c7.74733,-3.88133 13.37567,-9.55633
    16.885,-17.025c2.30467,-4.90333 4.896,-14.29167 7.774,-28.165c0.94467,-4.556 1.68833,-8.06967
    2.231,-10.541c3.59467,-16.374 19.44767,-27.11833 47.559,-32.233c15.134,-2.754 35.814,-3.81567
    62.04,-3.185c3.67467,0.08867 6.134,0.133 7.378,0.133c0.89733,0 2.262,0.002
    4.094,0.006c20.91133,0.04867 35.959,-1.22367 45.143,-3.817c15.48333,-4.37267 25.083,-13.357
    28.799,-26.953c2.97067,-10.86933 4.2,-23.685 3.688,-38.447c-0.26467,-7.642 -0.09067,-13.18667
    0.522,-16.634c2.13333,-12.00933 6.01867,-22.22533 11.656,-30.648c4.654,-6.95333
    12.30167,-15.04093 22.943,-24.2628c12.42133,-10.76313 29.947,-14.0684
    52.577,-9.9158c8.996,1.6508 19.57167,4.59767 31.727,8.8406c7.282,2.542 18.411,6.79867
    33.387,12.77c29.46067,11.74733 50.97767,18.96833 64.551,21.663c22.484,4.46333 40.265,2.15567
    53.343,-6.923c16.87733,-11.71733 33.15467,-16.10633 48.832,-13.167c6.26,1.174 12.95,3.59067
    20.07,7.25c4.25333,2.184 10.48667,5.89033 18.7,11.119c10.04,6.39533 17.69333,10.78867
    22.96,13.18c8.71333,3.95933 17.05,5.939 25.01,5.939c16.76,0 30.29,-3.22033
    40.59,-9.661c14.73333,-9.20667 18.06,-23.6936 9.98,-43.4608c-4.55333,-11.14247 -6.07667,-20.5283
    -4.57,-28.1575c1.35333,-6.876 4.95333,-11.7288 10.8,-14.5584c5.34,-2.58287 11.56333,-3.06887
    18.67,-1.458c7.10667,1.6094 13.50333,4.9595 19.19,10.0503c9.53333,8.52527 17.34333,14.43857
    23.43,17.7399c6.28667,3.4062 15.67333,6.7523 28.16,10.0383c3.95333,1.03907 8.71,0.5802
    14.27,-1.3766c3.52,-1.23807 9.34667,-3.97787 17.48,-8.2194c9.61333,-5.014 17.27333,-8.65073
    22.98,-10.9102c9.78,-3.86993 19.41333,-6.37643 28.9,-7.5195c9.24,-1.11147 19.48333,-0.22783
    30.73,2.6509c6.1,1.56127 10.73,2.3419 13.89,2.3419c6.7,0 16.59333,-1.71823
    29.68,-5.1547c12.03333,-3.15947 21.33333,-6.24423 27.9,-9.2543c0.88667,-0.40447 2.41333,-1.0762
    4.58,-2.0152c11.51333,-4.9834 20.34333,-9.6007 26.49,-13.8519c10.89333,-7.53447 17.86,-16.04401
    20.9,-25.52864l1.9,0.60955c-3.17333,9.91686 -10.39333,18.77156 -21.66,26.56409c-6.26,4.326
    -15.20667,9.00677 -26.84,14.0423c-2.15333,0.93413 -3.66667,1.6001 -4.54,1.9979c-6.66667,3.05813
    -16.07333,6.18167 -28.22,9.3706c-13.25333,3.4802 -23.31667,5.2203 -30.19,5.2203c-3.33333,0
    -8.13,-0.80147 -14.39,-2.4044c-11,-2.81673 -20.99667,-3.6843 -29.99,-2.6027c-9.32,1.1224
    -18.78667,3.58687 -28.4,7.3934c-5.64,2.234 -13.24,5.84203 -22.8,10.8241c-8.22,4.28547
    -14.13333,7.06297 -17.74,8.3325c-5.94667,2.09267 -11.09333,2.5674 -15.44,1.4242c-12.64,-3.32687
    -22.17333,-6.73157 -28.6,-10.2141c-6.22667,-3.37553 -14.16333,-9.37807
    -23.81,-18.0076c-5.43333,-4.86053 -11.53333,-8.05733 -18.3,-9.5904c-6.65333,-1.50773
    -12.44,-1.07183 -17.36,1.3077c-5.24667,2.53993 -8.48333,6.9215 -9.71,13.1447c-1.42667,7.23707
    0.06,16.24187 4.46,27.0144c8.50667,20.80687 4.91667,36.1113 -10.77,45.9133c-10.62667,6.64333
    -24.51,9.965 -41.65,9.965c-8.25333,0 -16.86667,-2.03933 -25.84,-6.118c-5.34667,-2.43
    -13.08333,-6.868 -23.21,-13.314c-8.16,-5.19533 -14.33667,-8.871 -18.53,-11.027c-6.94667,-3.57067
    -13.45633,-5.925 -19.529,-7.063c-15.128,-2.83667 -30.90233,1.44433
    -47.323,12.843c-13.54267,9.402 -31.83333,11.81633 -54.872,7.243c-13.692,-2.71867
    -35.32633,-9.97433 -64.903,-21.767c-14.94933,-5.96067 -26.051,-10.20723
    -33.305,-12.7397c-12.05733,-4.209 -22.53367,-7.12957 -31.429,-8.7617c-22,-4.03693
    -38.96867,-0.8836 -50.906,9.46c-10.506,9.10493 -18.03633,17.05973 -22.591,23.8644c-5.48133,8.19
    -9.26433,18.15167 -11.349,29.885c-0.588,3.30867 -0.752,8.71367 -0.492,16.215c0.51933,14.964
    -0.73333,27.97867 -3.758,39.044c-3.914,14.32267 -13.97567,23.77267 -30.185,28.35c-9.362,2.64333
    -24.59233,3.94067 -45.691,3.892c-1.832,-0.004 -3.195,-0.006 -4.089,-0.006c-1.26,0
    -3.73533,-0.04433 -7.426,-0.133c-26.08867,-0.62733 -46.63333,0.42367
    -61.634,3.153c-27.238,4.95533 -42.559,15.18667 -45.963,30.694c-0.54067,2.46267 -1.283,5.96867
    -2.227,10.518c-2.91,14.02733 -5.55067,23.564 -7.922,28.61c-3.706,7.886 -9.63933,13.87333
    -17.8,17.962c-13.20733,6.60867 -31.26167,9.44833 -54.163,8.519c-13.99267,-0.56733
    -26.85467,-2.18333 -38.586,-4.848c-3.49067,-0.79333 -8.001,-2.57367
    -13.531,-5.341c-6.81133,-3.40867 -13.13467,-7.409 -18.97,-12.001c-16.35933,-12.872
    -25.284,-27.38567 -26.774,-43.541c-1.54933,-16.78333 -6.575,-30.16033
    -15.077,-40.131c-9.074,-10.64067 -21.04967,-15.961 -35.927,-15.961c-9.69133,0 -17.666,3.07133
    -23.924,9.214c-7.09133,6.96 -11.45233,17.42733 -13.083,31.402c-0.22533,1.92867 -0.44267,4.82667
    -0.652,8.694c-0.456,8.406 -1.407,14.79433 -2.853,19.165c-2.42067,7.31267 -7.02333,14.11233
    -13.808,20.399c-14.53867,13.46533 -29.653,18.90833 -45.343,16.329c-11.87133,-1.952
    -21.53033,-7.42733 -28.977,-16.426c-5.25467,-6.35333 -11.34133,-12.13433
    -18.26,-17.343c-7.02713,-5.29067 -13.32413,-8.783 -18.891,-10.477c-16.3718,-4.984
    -31.49083,-2.774 -45.3571,6.63c-14.67007,9.96 -24.92353,17.07967 -30.7604,21.359z"></path>
    <!-- <path id="path3" 
      style="fill:url(#linearGradient-1);"
      d="M4,296.386M4,296.386c5.87033,-4.304 16.15833,-11.448 30.864,-21.432c14.7896,-10.03067 30.90367,-12.392 48.3422,-7.084c5.96113,1.81467 12.62007,5.49133 19.9768,11.03c7.138,5.374 13.422,11.34367 18.852,17.909c6.88933,8.32467 15.83867,13.392 26.848,15.202c14.56333,2.39467 28.69533,-2.753 42.396,-15.443c6.344,-5.878 10.632,-12.18833 12.864,-18.931c1.34867,-4.07467 2.24233,-10.15933 2.681,-18.254c0.21333,-3.94 0.437,-6.91033 0.671,-8.911c1.726,-14.79267 6.42833,-25.95733 14.107,-33.494c6.93933,-6.81067 15.73133,-10.216 26.376,-10.216c15.954,0 28.81733,5.73 38.59,17.19c8.98267,10.534 14.28267,24.56067 15.9,42.08c1.39733,15.15667 9.88133,28.861 25.452,41.113c5.648,4.444 11.77233,8.31767 18.373,11.621c5.27733,2.64133 9.52367,4.32733 12.739,5.058c11.52467,2.61733 24.17533,4.20533 37.952,4.764c22.30133,0.904 39.78667,-1.81333 52.456,-8.152c7.43733,-3.726 12.83667,-9.16633 16.198,-16.321c2.25533,-4.798 4.80967,-14.07533 7.663,-27.832c0.94533,-4.55667 1.69033,-8.07567 2.235,-10.557c3.73733,-17.026 19.989,-28.15533 48.755,-33.388c15.23733,-2.772 36.019,-3.84133 62.345,-3.208c3.662,0.088 6.10933,0.132 7.342,0.132c0.902,0 2.268,0.002 4.098,0.006c20.77133,0.048 35.68167,-1.20567 44.731,-3.761c14.94,-4.21867 24.19333,-12.85333 27.76,-25.904c2.93067,-10.72467 4.14267,-23.39133 3.636,-38c-0.26867,-7.74733 -0.08733,-13.397 0.544,-16.949c2.17,-12.21533 6.132,-22.62167 11.886,-31.219c4.728,-7.064 12.464,-15.25147 23.208,-24.5624c12.78333,-11.0776 30.72667,-14.4968 53.83,-10.2576c9.07333,1.66493 19.72333,4.63153 31.95,8.8998c7.30533,2.55013 18.45467,6.81453 33.448,12.7932c29.37733,11.71333 50.80667,18.90833 64.288,21.585c22.068,4.38067 39.46667,2.15233 52.196,-6.685c17.22067,-11.9552 33.87533,-16.42453 49.964,-13.408c6.402,1.20067 13.22967,3.664 20.483,7.39c4.29333,2.20467 10.56333,5.93367 18.81,11.187c9.98667,6.35867 17.58,10.719 22.78,13.081c8.51333,3.86933 16.64333,5.804 24.39,5.804c16.47333,0 29.74,-3.14433 39.8,-9.433c14.01333,-8.75933 17.14,-22.63317 9.38,-41.6215c-4.66667,-11.4208 -6.21667,-21.0924 -4.65,-29.0148c1.44667,-7.36547 5.32,-12.5717 11.62,-15.6187c5.65333,-2.73513 12.20667,-3.25867 19.66,-1.5706c7.35333,1.66647 13.97333,5.13153 19.86,10.3952c9.44,8.4478 17.15333,14.2942 23.14,17.5392c6.18,3.3492 15.45333,6.65133 27.82,9.9064c3.65333,0.96093 8.11667,0.51393 13.39,-1.341c3.45333,-1.21453 9.21333,-3.926 17.28,-8.1344c9.66667,-5.03773 17.37667,-8.69603 23.13,-10.9749c9.9,-3.91753 19.65667,-6.45553 29.27,-7.614c9.42667,-1.13387 19.85333,-0.23823 31.28,2.6869c5.97333,1.53007 10.48,2.2951 13.52,2.2951c6.57333,0 16.34,-1.70183 29.3,-5.1055c11.94667,-3.13693 21.16667,-6.19263 27.66,-9.1671c0.88667,-0.40787 2.42,-1.0839 4.6,-2.0281c11.42667,-4.94493 20.17,-9.51467 26.23,-13.7092c10.62,-7.34107 17.39667,-15.59174 20.33,-24.75201l4.76,1.52388c-3.28,10.24082 -10.69333,19.3544 -22.24,27.34073c-6.34,4.3812 -15.37,9.10953 -27.09,14.185c-2.14667,0.93087 -3.65,1.59253 -4.51,1.985c-6.75333,3.09493 -16.24333,6.24757 -28.47,9.4579c-13.38,3.51293 -23.57,5.2694 -30.57,5.2694c-3.46,0 -8.38,-0.8171 -14.76,-2.4513c-10.82,-2.77027 -20.63333,-3.6258 -29.44,-2.5666c-9.18667,1.10693 -18.53,3.5399 -28.03,7.2989c-5.59333,2.21513 -13.14333,5.80163 -22.65,10.7595c-8.28667,4.3182 -14.26667,7.12397 -17.94,8.4173c-6.24,2.1946 -11.68,2.68123 -16.32,1.4599c-12.76,-3.35713 -22.40333,-6.8058 -28.93,-10.346c-6.33333,-3.43107 -14.36667,-9.5005 -24.1,-18.2083c-5.24,-4.688 -11.11667,-7.76983 -17.63,-9.2455c-6.31333,-1.4302 -11.77,-1.03183 -16.37,1.1951c-4.8,2.3226 -7.76667,6.35073 -8.9,12.0844c-1.36667,6.94227 0.09333,15.66127 4.38,26.157c8.82,21.5878 5.03333,37.50537 -11.36,47.7527c-10.87333,6.79533 -25.02333,10.193 -42.45,10.193c-8.46667,0 -17.28667,-2.084 -26.46,-6.252c-5.41333,-2.45867 -13.21,-6.93033 -23.39,-13.415c-8.12,-5.17067 -14.26,-8.82333 -18.42,-10.958c-6.82,-3.504 -13.19167,-5.81167 -19.115,-6.923c-14.718,-2.75933 -30.115,1.44133 -46.191,12.602c-13.89133,9.64333 -32.56467,12.137 -56.02,7.481c-13.78267,-2.736 -35.505,-10.01767 -65.167,-21.845c-14.926,-5.95153 -26.00733,-10.19037 -33.244,-12.7165c-11.98333,-4.1834 -22.385,-7.08427 -31.205,-8.7026c-21.528,-3.95027 -38.079,-0.91083 -49.653,9.1183c-10.40533,9.01787 -17.84767,16.8728 -22.327,23.5648c-5.36467,8.016 -9.07067,17.787 -11.118,29.313c-0.57,3.20467 -0.72667,8.505 -0.47,15.901c0.52467,15.11467 -0.74533,28.27833 -3.81,39.491c-4.06267,14.868 -14.47067,24.66733 -31.224,29.398c-9.49733,2.682 -24.86467,3.99833 -46.102,3.949c-1.83,-0.004 -3.192,-0.006 -4.086,-0.006c-1.27267,0 -3.76,-0.04467 -7.462,-0.134c-25.98533,-0.62467 -46.42867,0.41833 -61.33,3.129c-26.58267,4.836 -41.50467,14.683 -44.766,29.541c-0.54067,2.46333 -1.28167,5.96367 -2.223,10.501c-2.93333,14.14133 -5.611,23.789 -8.033,28.943c-3.85333,8.2 -10.01567,14.422 -18.487,18.666c-13.43733,6.72267 -31.73567,9.61467 -54.895,8.676c-14.08267,-0.57133 -27.03533,-2.19933 -38.858,-4.884c-3.60867,-0.82 -8.23167,-2.641 -13.869,-5.463c-6.90333,-3.45467 -13.31233,-7.509 -19.227,-12.163c-16.69667,-13.13867 -25.80967,-27.99933 -27.339,-44.582c-1.52,-16.46733 -6.42867,-29.56567 -14.726,-39.295c-8.77467,-10.29 -20.36967,-15.435 -34.785,-15.435c-9.28267,0 -16.90733,2.928 -22.874,8.784c-6.83867,6.71267 -11.053,16.88133 -12.643,30.506c-0.22133,1.898 -0.436,4.765 -0.644,8.601c-0.46333,8.53933 -1.439,15.05767 -2.927,19.555c-2.50133,7.558 -7.239,14.56733 -14.213,21.028c-14.89733,13.79867 -30.43267,19.36833 -46.606,16.709c-12.24067,-2.01267 -22.20367,-7.66267 -29.889,-16.95c-5.17933,-6.26267 -11.18133,-11.963 -18.006,-17.101c-6.88627,-5.184 -13.0282,-8.59733 -18.4258,-10.24c-15.915,-4.84467 -30.60757,-2.69933 -44.0777,6.436c-14.65627,9.95067 -24.89496,17.06 -30.71608,21.328z"></path> -->
  </g>
  <defs>
    <linearGradient x1="0%" y1="100%" x2="100%" y2="100%" id="linearGradient-1">
      <stop stop-color="#3B5FF0" offset="0%"></stop>
      <stop stop-color="#93ceff" offset="20%"></stop>
      <stop stop-color="#3B5FFF" offset="50%"></stop>
      <stop stop-color="#93ceff" offset="70%"></stop>
      <stop stop-color="#3B5FF0" offset="90%"></stop>
      <stop stop-color="#3B5FF000" offset="100%"></stop>
    </linearGradient>

    <filter id="filter_0" x="1.47821044921875" y="-3.238067626953125" width="1469.4999999999998"
      height="340.4898814786795" filterUnits="userSpaceOnUse" color-interpolation-filters="sRGB">
      <feFlood flood-opacity="0" result="feFloodId" />
      <feColorMatrix in="SourceAlpha" type="matrix"
        values="0 0 0 0 0 0 0 0 0 0 0 0 0 0 0 0 0 0 127 0" result="hardAlpha" />

      <feOffset dx="0" dy="2" />
      <feComposite in2="hardAlpha" operator="out" />
      <feGaussianBlur stdDeviation="2" />
      <feColorMatrix type="matrix" values="0 0 0 0 0 0 0 0 0 0 0 0 0 0 0 0 0 0 0.25 0" />
      <feBlend mode="normal" in2="filter_feFlood" result="filter_feFlood_1" />
      <feBlend mode="normal" in="SourceGraphic" in2="filter_0" result="shape" />
    </filter>
  </defs>
</svg>