<svg viewBox="0 0 400 300" fill="none" xmlns="http://www.w3.org/2000/svg"><path d="m89.981 241.816.615-17.055c-.24-.136-13.582 0-13.582 0l-5.995 9.905 7.166 6.9 11.796.25Z" fill="#FF3F08"/><path d="M78.384 242.936s.25-3.218.135-3.468a3.204 3.204 0 0 0-1.9-2.193c-1.563-.687-3.98-3.15-1.485-6.39 4.114-.323 2.812-6.671 2.812-6.671-5.364-9.582-7.89-17.399-9.01-21.581a4.69 4.69 0 0 0-4.108-3.458l-1.922 48.266 15.478-4.505Z" fill="#2C60FF"/><path d="m62.843 249.092.063-1.651 1.932-48.266h-.198a4.63 4.63 0 0 0-4.828 4.432L58 248.883a1.753 1.753 0 0 0 1.677 1.813l1.354.057a1.723 1.723 0 0 0 1.251-.454 1.723 1.723 0 0 0 .561-1.207Z" fill="#D2E9FE"/><path d="M74.957 231.125c.057-.078.114-.162.177-.24.319-.024.633-.094.932-.208l-.094-.292c-.12.037-2.864.854-4.567-2.182-.354-.625-.636-1.25-.912-1.854-.593-1.302-1.156-2.536-2.254-3.499-1.1-.964-2.401-1.464-4.276-1.74v.625c4.046.61 4.916 2.51 5.989 4.869.281.62.573 1.256.937 1.901a5.332 5.332 0 0 0 1.656 1.865 4.27 4.27 0 0 0 1.724.692c.227.039.457.06.688.063ZM72.092 244.775v-.058c-.031 0-2.734-.838-3.708-2.999a7.337 7.337 0 0 0-5.208-4.339l-.161 3.984a3.47 3.47 0 0 1 1.87 1.927 8.443 8.443 0 0 0 2.233 2.932l4.974-1.447Z" fill="#F3F1F0"/><path d="M72.582 213.215a1.812 1.812 0 0 1 2.083.651c.822 1.151 1.156 2.156.52 2.875-.635.719-4.468 2.911-5.827 2.729 0 0-1.27-2.411-1.505-2.797-.235-.385 5.426-1.994 5.208-2.328-.12-.182-.11-.432-.48-1.13ZM74.53 217.517a1.82 1.82 0 0 1 2.11.651c.821 1.151 1.154 2.156.519 2.875-.635.718-4.468 2.911-5.828 2.728 0 0-1.27-2.411-1.505-2.796-.234-.386 5.427-1.995 5.208-2.328-.15-.182-.14-.432-.505-1.13Z" fill="#93B9FF"/><path d="M88.43 215.777h113.009v29.685H83.742l4.687-29.685Z" fill="#121D3A"/><path d="M146.377 215.028h-15.655l-3.828 7.702c-1.224 2.416-2.234 4.421-2.234 4.421l10.353 5.682 6.692-7.577 4.672-10.228Z" fill="#FF3F08"/><path d="M143.096 224.985s-3.28-.13-3.536 0a3.237 3.237 0 0 0-2.145 2.015c-.63 1.646-3.031 4.166-6.437 1.771-.521-4.166-6.911-2.604-6.911-2.604-9.515 5.817-17.357 8.718-21.565 10.015a4.717 4.717 0 0 0-3.36 4.353h49.214l-5.26-15.55Z" fill="#2C60FF"/><path d="M150.033 240.535h-50.89v.203a4.718 4.718 0 0 0 4.718 4.719h46.157a1.777 1.777 0 0 0 1.776-1.771v-1.38a1.78 1.78 0 0 0-1.761-1.771Z" fill="#D2E9FE"/><path d="M122.155 240.535c.443-4.135 2.338-5.093 4.687-6.28.614-.313 1.25-.636 1.896-1.042a4.805 4.805 0 0 0 2.452-3.541c.031-.24.041-.482.032-.724l-.25-.172a3.5 3.5 0 0 0-.25-.937l-.297.109c.166.532.214 1.094.14 1.646a4.159 4.159 0 0 1-2.161 3.078c-.619.38-1.244.697-1.843.999-1.302.657-2.531 1.276-3.464 2.433-.932 1.156-1.385 2.494-1.562 4.416l.62.015ZM145.23 231.312h-.062c0 .032-.73 2.807-2.886 3.885a7.463 7.463 0 0 0-2.754 2.229 7.46 7.46 0 0 0-1.412 3.25h4.057a3.533 3.533 0 0 1 1.88-1.974 8.636 8.636 0 0 0 2.885-2.39l-1.708-5Z" fill="#F3F1F0"/><path d="M113.11 232.094a1.85 1.85 0 0 1 .567-2.167c1.136-.885 2.146-1.26 2.906-.63.761.63 3.156 4.416 3.031 5.807 0 0-2.401 1.39-2.781 1.64-.38.25-2.265-5.432-2.604-5.182-.171.131-.427.131-1.119.532ZM117.4 229.943a1.843 1.843 0 0 1 .568-2.162c1.141-.885 2.151-1.265 2.906-.63.755.636 3.156 4.417 3.031 5.807 0 0-2.401 1.39-2.776 1.64s-2.27-5.431-2.604-5.207c-.177.156-.427.156-1.125.552Z" fill="#93B9FF"/><path d="M224.306 217.256s7.291 19.373 10.879 20.655c3.588 1.281 21.393 1.406 21.393 1.406a7.295 7.295 0 0 0-5.207-4.292c-4.099-1.041-10.119-2.432-10.119-2.432s12.874-2.114 15.311-1.598c2.437.515 12.499 3.52 14.155 3.265 1.656-.255 1.406-1.042.895-1.536 0 0 1.667.52 2.177-.131.511-.651 1.156-1.921 0-2.562-1.156-.64-14.733-4.614-17.55-4.484-2.817.13-10.634.13-13.197 1.412l-4.213-8.994-14.524-.709Z" fill="#AABCFF"/><path d="M280.468 75H75.546v135.049h204.922V75Z" fill="#D2E9FE"/><path d="M270.739 77.38h-8.968v8.968h8.968V77.38Z" fill="#fff" stroke="#000" stroke-width=".12" stroke-miterlimit="10"/><path d="m261.771 77.38 8.968 8.968M270.8 77.317l-8.973 8.968" stroke="#000" stroke-width=".12" stroke-miterlimit="10"/><path d="M75.546 88.796h205.026" stroke="#2C60FF" stroke-width=".542" stroke-miterlimit="10"/><path d="M116.041 125.693H89.569V171.1h26.472v-45.407Z" fill="#93B9FF"/><path d="M165.499 106.622H84.356v1.755H165.5v-1.755Z" fill="#fff"/><path d="M163.38 165.928h-37.257v1.755h37.257v-1.755ZM186.518 170.308h-60.395v1.755h60.395v-1.755Z" fill="#99BFFE"/><path d="M109.558 129.198H83.435v45.407h26.123v-45.407Z" fill="#398CFF"/><path d="M87.07 138.842h19.169M87.07 145.149h19.169M93.334 151.461h12.905M93.334 157.773h12.905M93.334 164.085h12.905" stroke="#fff" stroke-width=".385" stroke-miterlimit="10"/><path d="M265.229 159.002h-38.397a4.56 4.56 0 0 1-4.408-4.56 4.56 4.56 0 0 1 4.408-4.559h38.397a4.564 4.564 0 0 1 4.408 4.559 4.561 4.561 0 0 1-4.408 4.56Z" fill="#fff"/><path d="M268.208 154.971h-38.392a4.554 4.554 0 0 1-3.325-1.279 4.576 4.576 0 0 1-1.391-3.28 4.567 4.567 0 0 1 1.391-3.28 4.556 4.556 0 0 1 3.325-1.28h38.392a4.56 4.56 0 0 1 3.125 1.389 4.558 4.558 0 0 1 0 6.342 4.563 4.563 0 0 1-3.125 1.388Z" stroke="#2C60FF" stroke-width=".406" stroke-miterlimit="10"/><path d="M159.521 134.28h-30.679v26.649h30.679V134.28Z" fill="#99BFFE"/><path d="M156.995 129.583H127.3v29.695h29.695v-29.695Z" fill="#fff" stroke="#1E294A" stroke-width=".203" stroke-miterlimit="10"/><path d="M282.854 215.44c5.079-1.978 7.593-7.698 5.615-12.777-1.978-5.079-7.699-7.593-12.778-5.615-5.079 1.979-7.592 7.699-5.614 12.778 1.978 5.079 7.699 7.592 12.777 5.614Z" fill="#2C60FF"/><path d="M260.739 113.564h-2.76a1.002 1.002 0 0 0-.965.619.994.994 0 0 0-.076.396v22.311a.998.998 0 0 0 .296.712 1.007 1.007 0 0 0 .714.293h22.513v-24.357l-19.722.026Z" fill="#398CFF"/><path d="M138.548 139.462v9.932a.327.327 0 0 0 .521.26l6.535-4.994a.324.324 0 0 0 .129-.261.332.332 0 0 0-.129-.26l-6.535-4.932a.337.337 0 0 0-.466.09.328.328 0 0 0-.055.165Z" fill="#1E294A"/><path d="M316.558 102.346h-54.584c-.681 0-1.234.553-1.234 1.234v29.44c0 .682.553 1.234 1.234 1.234h54.584c.681 0 1.234-.552 1.234-1.234v-29.44c0-.681-.553-1.234-1.234-1.234Z" fill="#93B9FF"/><path d="M273.415 115.053h38.725M273.415 120.73h38.725" stroke="#2C60FF" stroke-width=".463" stroke-miterlimit="10" stroke-linecap="round"/><path d="M327.187 134.223c-5.728-.989-7.525-9.374-7.525-9.374s-1.791 8.411-7.525 9.374c5.728.99 7.525 9.405 7.525 9.405s1.791-8.415 7.525-9.405Z" fill="#fff" stroke="#000" stroke-width=".422" stroke-miterlimit="10"/><path d="M212.797 149.545c-6.03-4.646-16.003-6.948-16.003-6.948-4.526 3.51-11.077 9.109-16.796 8.177-3.072-.521-4.166-5.406-4.562-7.989l-.494.234c-6.604-.411-18.748 11.739-18.748 11.739s-4.005 4.869-6.885 8.473a96.395 96.395 0 0 0-13.541 21.164c-1.838 4.213 1.756 8.249 3.25 7.458 0 0 22.915 5.546 39.949 4.796 19.097-.843 34.023-4.463 34.997-4.093 0 0 6.218 28.606 7.754 30.403l21.279.271s-20.034-65.858-30.2-73.685Z" fill="#2C60FF"/><path d="m154.017 196.212-6.734-2.104 1.24 2.364-11.587 5.932 2.119 4.051 11.587-5.931 1.271 2.421 2.104-6.733Z" fill="#04042B"/><path d="M349.756 204.013h-51.391a1.151 1.151 0 0 0-.984.562l-21.211 35.747h-42.876v5.494h39.611l-.032.052h55.073l22.805-40.152a1.144 1.144 0 0 0-.428-1.549 1.143 1.143 0 0 0-.567-.154Z" fill="#398CFF"/><path d="M256.99 226.641s11.853 4.624 13.02 5.692" stroke="#1E294A" stroke-width=".474" stroke-miterlimit="10" stroke-linecap="round"/><path d="M179.998 150.774c5.728.932 12.27-4.687 16.795-8.177l-5.041-2.4-1.078-.521c-.479-.74-.844-2.443-.406-6.286l-12.025-10.082s-1.667 1.229-2.193 7.546 1.318 7.718 6.932 6.051c.221.997.221 2.03 0 3.026l-.26.047a44.441 44.441 0 0 0-7.291 2.807c.38 2.583 1.494 7.483 4.567 7.989Z" fill="#AABCFF"/><path d="M149.429 169.069c.909.142 1.81.333 2.698.572.432.12.869.256 1.297.396l.661.235c.194.053.379.132.552.234l-.188-.193.037.052-.073-.265v.057l.073-.266v.032l.318-.245h.307l.245.318v-.026l-.136.52a.524.524 0 1 0-.739-.744h-.026a.518.518 0 0 0-.136.52.612.612 0 0 0 .75.417.594.594 0 0 0 .292-.911c-.182-.276-.557-.36-.849-.474a23.924 23.924 0 0 0-4.802-1.25.52.52 0 0 0-.661.57.514.514 0 0 0 .385.44l-.005.011Z" fill="#1E294A"/><path d="m148.412 221.053-35.507.453s43.314-60.056 55.422-66.707c12.108-6.65 17.42 3.427 20.274 6.494 4.265 4.599 25.841 33.086 30.445 46.246 2.958 8.436 18.347 27.08-3.505 38.256-3.437 1.766-10.103 1.953-14.426-1.432-13.019-10.192-27.08-42.35-28.841-52.021 0 0-19.3 24.06-23.862 28.711Z" fill="#1E294A"/><path d="M312.99 233.286a4.374 4.374 0 1 0 0-8.75 4.374 4.374 0 0 0 0 8.75Z" fill="#D2E9FE"/><path d="M267.879 243.436a1.052 1.052 0 1 0 0-2.104 1.052 1.052 0 0 0 0 2.104Z" fill="#2C60FF"/><path d="M202.386 159.132a28.019 28.019 0 0 0 3.271 1.724c.09.043.192.051.288.025a.418.418 0 0 0 .233-.171.39.39 0 0 0-.141-.521 27.034 27.034 0 0 1-3.27-1.723.395.395 0 0 0-.401.682l.02-.016ZM211.844 161.392a16.733 16.733 0 0 1 2.338-1.718.395.395 0 1 0-.401-.682 18.329 18.329 0 0 0-2.494 1.843.393.393 0 0 0 .557.557ZM199.798 150.466l2.651 1.104c.1.028.207.015.298-.036a.404.404 0 0 0 .187-.234.41.41 0 0 0-.276-.49l-2.651-1.109a.395.395 0 0 0-.445.576.407.407 0 0 0 .236.189ZM194.23 166.902l2.026-.354a.395.395 0 0 0 .101-.739.396.396 0 0 0-.315-.021l-2.02.354a.392.392 0 0 0-.29.33.404.404 0 0 0 .498.43ZM200.902 169.615l-.172 1.875a.399.399 0 0 0 .396.396.415.415 0 0 0 .276-.12.415.415 0 0 0 .12-.276l.172-1.875a.4.4 0 0 0-.396-.395.41.41 0 0 0-.396.395ZM212.474 169.261l2.895 1.599a.41.41 0 0 0 .521-.146.394.394 0 0 0-.141-.52l-2.895-1.599a.392.392 0 0 0-.446.019.396.396 0 0 0 .045.663l.021-.016ZM206.88 179.203l-.463 2.344a.395.395 0 0 0 .276.489.398.398 0 0 0 .489-.276l.459-2.349a.404.404 0 0 0-.276-.484.4.4 0 0 0-.485.276ZM184.144 156.158a10.928 10.928 0 0 0 2.166 1.563.396.396 0 1 0 .401-.682 10.67 10.67 0 0 1-1.078-.667l-.239-.177-.047-.037h-.037l-.114-.093c-.172-.141-.334-.282-.521-.427a.4.4 0 0 0-.557 0 .393.393 0 0 0 0 .557l.026-.037ZM167.489 148.003l.917 2.51a.4.4 0 0 0 .484.276.404.404 0 0 0 .276-.489l-.911-2.51a.4.4 0 0 0-.188-.24.396.396 0 0 0-.578.453ZM164.167 154.383c.146.036.287.078.432.13l.183.067h.052c-.052 0-.058 0 0 0l.104.047c.263.121.514.266.75.433.09.05.196.063.296.035a.393.393 0 0 0 .28-.476.395.395 0 0 0-.175-.242 5.227 5.227 0 0 0-1.687-.77.381.381 0 0 0-.16-.022.382.382 0 0 0-.28.145.383.383 0 0 0-.074.143.376.376 0 0 0-.011.16.409.409 0 0 0 .163.27.407.407 0 0 0 .148.064l-.021.016ZM153.303 164.892a40.641 40.641 0 0 0 3.645-4.302.394.394 0 0 0-.14-.52.4.4 0 0 0-.521.14 38.861 38.861 0 0 1-3.531 4.135.393.393 0 0 0-.117.28.392.392 0 0 0 .394.397.395.395 0 0 0 .28-.114l-.01-.016ZM146.584 171.225l1.271 2.963a.402.402 0 0 0 .521.141.41.41 0 0 0 .14-.521l-1.249-2.984a.398.398 0 0 0-.521-.146.408.408 0 0 0-.141.521l-.021.026ZM140.069 184.65l2.359-3.124a.395.395 0 0 0-.141-.521.4.4 0 0 0-.52.141l-2.36 3.124a.405.405 0 0 0 .141.521.4.4 0 0 0 .521-.141ZM224.081 196.988c.887.525 1.812.985 2.766 1.375l.208-.761-.64-.239a.39.39 0 0 0-.446.121.394.394 0 0 0 .237.639l.641.24a.398.398 0 0 0 .422-.57.397.397 0 0 0-.214-.191 19.796 19.796 0 0 1-2.578-1.297.393.393 0 0 0-.312-.062.398.398 0 0 0-.293.504.412.412 0 0 0 .209.241ZM216.733 194.103a16.902 16.902 0 0 0 2.057-2.651.396.396 0 0 0-.14-.521.4.4 0 0 0-.521.141 15.484 15.484 0 0 1-1.937 2.494.396.396 0 1 0 .562.557l-.021-.02ZM225.743 191.202l2.651.521a.419.419 0 0 0 .489-.276.406.406 0 0 0-.276-.49l-2.656-.49a.406.406 0 0 0-.484.277.396.396 0 0 0 .276.484v-.026ZM221.842 203.523l-.224 2.198a.397.397 0 0 0 .396.396.408.408 0 0 0 .396-.396l.224-2.198a.385.385 0 0 0-.116-.279.4.4 0 0 0-.432-.086.395.395 0 0 0-.244.365ZM226.035 217.277l.141 2.333.776-.104-.104-.458a.393.393 0 0 0-.179-.265.394.394 0 0 0-.606.312.4.4 0 0 0 .024.161l.104.459a.4.4 0 0 0 .433.282.393.393 0 0 0 .343-.387l-.14-2.333a.398.398 0 0 0-.396-.396.397.397 0 0 0-.396.396ZM230.806 217.137l2.307 1.317a.395.395 0 0 0 .521-.14.4.4 0 0 0-.14-.521l-2.308-1.318a.404.404 0 0 0-.52.146.397.397 0 0 0 .145.521l-.005-.005Z" fill="#AABCFF"/><path d="M181.296 215.538a79.095 79.095 0 0 0 4.515 9.603 71.998 71.998 0 0 0 5.729 8.489c1.489 1.927 3.031 3.807 4.583 5.676.109.131.296-.057.187-.187-4.63-5.562-9.056-11.249-12.218-17.795-.926-1.922-1.76-3.88-2.557-5.854-.062-.156-.317-.088-.255.068h.016Z" fill="#fff"/><path d="M207.225 170.048c2.026 5.973 3.573 12.134 5.14 18.227.375 1.465.74 2.929 1.094 4.39.156.662 1.171.38 1.015-.276a367.89 367.89 0 0 0-4.89-18.316c-.427-1.447-.859-2.89-1.343-4.317-.219-.641-1.235-.364-1.016.276v.016Z" fill="#1E294A"/><path d="m83.742 245.681 254.245.437" stroke="#1E294A" stroke-width=".875" stroke-miterlimit="10"/><path d="M233.331 239.832h42.589l20.446-33.241" stroke="#1E294A" stroke-width=".875" stroke-miterlimit="10" stroke-linecap="round"/><path d="M175.437 142.795c.348 2.531 1.411 7.458 4.562 7.979 5.728.932 12.269-4.687 16.795-8.177" stroke="#1E294A" stroke-width="1.109" stroke-miterlimit="10"/><path d="M115.511 217.376c4.166-5.645 9.895-12.858 13.977-18.086" stroke="#fff" stroke-width=".089" stroke-miterlimit="10"/><path d="M180.353 138.134c-3.193.88-4.734-.333-5.062-1.213-.328-.88-1.344-2.401-.412-9.155.199-1.377.521-2.733.964-4.052l6.161-3.849 7.811 6.822.657 7.041-10.119 4.406Z" fill="#AABCFF"/><path d="M185.159 125.62s-.36 3.265.708 2.802c1.068-.464.724-1.469 1.833-1.927 1.839-.761 4.208 4.723-.521 4.958 0 0 1.302 2.796 3.911 2.796 0 0-.359-3.963.355-6.77.713-2.807 2.13-6.645.119-8.28-2.01-1.636-4.265-2.083-6.515-1.281 0 0-1.775-3.037-5.801-1.87-1.307.354-4.385 2.494-6.062 5.255-1.443 2.364.052 3.775 1.12 3.864 2.604.208 5.786-1.672 6.161-2.208.484-.693 3.28-2.125 4.582 1.041.139.528.176 1.078.11 1.62Z" fill="#1E294A"/><path d="M180.04 132.588c.771-.771.952-1.839.405-2.386-.547-.547-1.615-.366-2.386.405-.771.771-.952 1.839-.405 2.386.547.547 1.615.366 2.386-.405Z" fill="#2C60FF"/></svg>