{
  "accessors": [
    {
      "bufferView": 2,
      "componentType": 5126,
      "count": 600,
      "max": [
        1.0307899713516235,
        -3.1295619010925293,
        1.4591230154037476
      ],
      "min": [
        0.6279879808425903,
        -3.4016799926757813,
        0.8444709777832031
      ],
      "type": "VEC3"
    },
    {
      "bufferView": 2,
      "byteOffset": 7200,
      "componentType": 5126,
      "count": 600,
      "max": [
        0.9999507665634155,
        0.9758306741714478,
        0.961164116859436
      ],
      "min": [
        -0.9996930956840515,
        -0.9763698577880859,
        -0.9611610770225525
      ],
      "type": "VEC3"
    },
    {
      "bufferView": 0,
      "componentType": 5125,
      "count": 3600,
      "type": "SCALAR"
    },
    {
      "bufferView": 2,
      "byteOffset": 14400,
      "componentType": 5126,
      "count": 65532,
      "max": [
        0.8508430123329163,
        7.502915859222412,
        1.7359739542007446
      ],
      "min": [
        -0.8497390151023865,
        -3.8352339267730713,
        0.008623999543488026
      ],
      "type": "VEC3"
    },
    {
      "bufferView": 2,
      "byteOffset": 800784,
      "componentType": 5126,
      "count": 65532,
      "max": [
        1.0,
        0.9999982118606567,
        0.9999865293502808
      ],
      "min": [
        -1.0,
        -1.0,
        -0.9999880790710449
      ],
      "type": "VEC3"
    },
    {
      "bufferView": 1,
      "componentType": 5126,
      "count": 65532,
      "max": [
        1.0296039581298828,
        3.727308988571167
      ],
      "min": [
        0.0,
        -2.01855206489563
      ],
      "type": "VEC2"
    },
    {
      "bufferView": 0,
      "byteOffset": 14400,
      "componentType": 5125,
      "count": 380517,
      "type": "SCALAR"
    },
    {
      "bufferView": 2,
      "byteOffset": 1587168,
      "componentType": 5126,
      "count": 5123,
      "max": [
        0.8451169729232788,
        7.4752888679504395,
        1.762840986251831
      ],
      "min": [
        -0.7886350154876709,
        -3.7038118839263916,
        0.0282990001142025
      ],
      "type": "VEC3"
    },
    {
      "bufferView": 2,
      "byteOffset": 1648644,
      "componentType": 5126,
      "count": 5123,
      "max": [
        1.0,
        1.0,
        0.9999994039535522
      ],
      "min": [
        -1.0,
        -1.0,
        -0.9999880790710449
      ],
      "type": "VEC3"
    },
    {
      "bufferView": 1,
      "byteOffset": 524256,
      "componentType": 5126,
      "count": 5123,
      "max": [
        1.0279459953308105,
        3.727195978164673
      ],
      "min": [
        0.0,
        -1.9515889883041382
      ],
      "type": "VEC2"
    },
    {
      "bufferView": 0,
      "byteOffset": 1536468,
      "componentType": 5125,
      "count": 18897,
      "type": "SCALAR"
    },
    {
      "bufferView": 2,
      "byteOffset": 1710120,
      "componentType": 5126,
      "count": 11535,
      "max": [
        0.29419299960136414,
        6.92178201675415,
        1.7874950170516968
      ],
      "min": [
        -0.29419198632240295,
        -2.838157892227173,
        0.47191300988197327
      ],
      "type": "VEC3"
    },
    {
      "bufferView": 2,
      "byteOffset": 1848540,
      "componentType": 5126,
      "count": 11535,
      "max": [
        1.0,
        0.9999985694885254,
        1.0
      ],
      "min": [
        -1.0,
        -1.0,
        -1.0
      ],
      "type": "VEC3"
    },
    {
      "bufferView": 1,
      "byteOffset": 565240,
      "componentType": 5126,
      "count": 11535,
      "max": [
        1.0267959833145142,
        3.361340045928955
      ],
      "min": [
        0.02523599937558174,
        -1.5186870098114014
      ],
      "type": "VEC2"
    },
    {
      "bufferView": 0,
      "byteOffset": 1612056,
      "componentType": 5125,
      "count": 59328,
      "type": "SCALAR"
    },
    {
      "bufferView": 2,
      "byteOffset": 1986960,
      "componentType": 5126,
      "count": 1292,
      "max": [
        0.34813201427459717,
        53.785804748535156,
        1.103518009185791
      ],
      "min": [
        -0.34813201427459717,
        7.081939220428467,
        0.10834299772977829
      ],
      "type": "VEC3"
    },
    {
      "bufferView": 2,
      "byteOffset": 2002464,
      "componentType": 5126,
      "count": 1292,
      "max": [
        0.9996973872184753,
        0.006399851758033037,
        0.9996768832206726
      ],
      "min": [
        -0.9996973872184753,
        -0.006399851758033037,
        -0.9996768832206726
      ],
      "type": "VEC3"
    },
    {
      "bufferView": 1,
      "byteOffset": 657520,
      "componentType": 5126,
      "count": 1292,
      "max": [
        0.0,
        0.0
      ],
      "min": [
        0.0,
        0.0
      ],
      "type": "VEC2"
    },
    {
      "bufferView": 0,
      "byteOffset": 1849368,
      "componentType": 5125,
      "count": 3072,
      "type": "SCALAR"
    }
  ],
  "asset": {
    "extras": {
      "author": "Oleksandr Zymohliad (https://sketchfab.com/oleksandr_zymohliad)",
      "license": "CC-BY-4.0 (http://creativecommons.org/licenses/by/4.0/)",
      "source": "https://sketchfab.com/3d-models/light-saber-367786862a534d449c18c3ea85f7b90e",
      "title": "Light Saber"
    },
    "generator": "Sketchfab-12.65.0",
    "version": "2.0"
  },
  "bufferViews": [
    {
      "buffer": 0,
      "byteLength": 1861656,
      "name": "floatBufferViews",
      "target": 34963
    },
    {
      "buffer": 0,
      "byteLength": 667856,
      "byteOffset": 1861656,
      "byteStride": 8,
      "name": "floatBufferViews",
      "target": 34962
    },
    {
      "buffer": 0,
      "byteLength": 2017968,
      "byteOffset": 2529512,
      "byteStride": 12,
      "name": "floatBufferViews",
      "target": 34962
    }
  ],
  "buffers": [
    {
      "byteLength": 4547480,
      "uri": "scene.bin"
    }
  ],
  "images": [
    {
      "uri": "textures/Material.002_metallicRoughness.png"
    }
  ],
  "materials": [
    {
      "doubleSided": true,
      "name": "Material",
      "pbrMetallicRoughness": {
        "baseColorFactor": [
          0.04167169351225247,
          0.04167169351225247,
          0.04167169351225247,
          1.0
        ],
        "roughnessFactor": 0.25171493902439024
      }
    },
    {
      "doubleSided": true,
      "name": "Material.002",
      "pbrMetallicRoughness": {
        "baseColorFactor": [
          0.09613381322921832,
          0.0715574240534692,
          0.02279241956231973,
          1.0
        ],
        "metallicRoughnessTexture": {
          "index": 0
        },
        "roughnessFactor": 0.2151295731707317
      }
    },
    {
      "doubleSided": true,
      "emissiveFactor": [
        0.0,
        1.0,
        0.141391344
      ],
      "name": "Material.003",
      "pbrMetallicRoughness": {
        "baseColorFactor": [
          0.49,
          0.49,
          0.49,
          1.0
        ],
        "metallicFactor": 0.0
      }
    }
  ],
  "meshes": [
    {
      "name": "Object_0",
      "primitives": [
        {
          "attributes": {
            "NORMAL": 1,
            "POSITION": 0
          },
          "indices": 2,
          "material": 0,
          "mode": 4
        }
      ]
    },
    {
      "name": "Object_1",
      "primitives": [
        {
          "attributes": {
            "NORMAL": 4,
            "POSITION": 3,
            "TEXCOORD_0": 5
          },
          "indices": 6,
          "material": 0,
          "mode": 4
        }
      ]
    },
    {
      "name": "Object_2",
      "primitives": [
        {
          "attributes": {
            "NORMAL": 8,
            "POSITION": 7,
            "TEXCOORD_0": 9
          },
          "indices": 10,
          "material": 0,
          "mode": 4
        }
      ]
    },
    {
      "name": "Object_3",
      "primitives": [
        {
          "attributes": {
            "NORMAL": 12,
            "POSITION": 11,
            "TEXCOORD_0": 13
          },
          "indices": 14,
          "material": 1,
          "mode": 4
        }
      ]
    },
    {
      "name": "Object_4",
      "primitives": [
        {
          "attributes": {
            "NORMAL": 16,
            "POSITION": 15,
            "TEXCOORD_0": 17
          },
          "indices": 18,
          "material": 2,
          "mode": 4
        }
      ]
    }
  ],
  "nodes": [
    {
      "children": [
        1
      ],
      "matrix": [
        1.0,
        0.0,
        0.0,
        0.0,
        0.0,
        2.220446049250313e-16,
        -1.0,
        0.0,
        0.0,
        1.0,
        2.220446049250313e-16,
        0.0,
        0.0,
        0.0,
        0.0,
        1.0
      ],
      "name": "Sketchfab_model"
    },
    {
      "children": [
        2,
        3,
        4,
        5,
        6
      ],
      "name": "Light_Saber[model].obj.cleaner.gles"
    },
    {
      "mesh": 0,
      "name": "Object_2"
    },
    {
      "mesh": 1,
      "name": "Object_3"
    },
    {
      "mesh": 2,
      "name": "Object_4"
    },
    {
      "mesh": 3,
      "name": "Object_5"
    },
    {
      "mesh": 4,
      "name": "Object_6"
    }
  ],
  "samplers": [
    {
      "magFilter": 9729,
      "minFilter": 9987,
      "wrapS": 10497,
      "wrapT": 10497
    }
  ],
  "scene": 0,
  "scenes": [
    {
      "name": "Sketchfab_Scene",
      "nodes": [
        0
      ]
    }
  ],
  "textures": [
    {
      "sampler": 0,
      "source": 0
    }
  ]
}
